<mxfile host="app.diagrams.net" modified="2020-11-03T01:54:34.266Z" agent="5.0 (Windows NT 10.0; Win64; x64) AppleWebKit/537.36 (KHTML, like Gecko) Chrome/86.0.4240.111 Safari/537.36 Edg/86.0.622.58" etag="khbgsSkP1DAxlk5889xp" version="13.8.8" type="github">
  <diagram id="2hkVyVaRWN60kcIebYXN" name="Page-1">
    <mxGraphModel dx="1021" dy="612" grid="1" gridSize="10" guides="1" tooltips="1" connect="1" arrows="1" fold="1" page="1" pageScale="1" pageWidth="850" pageHeight="1100" math="0" shadow="0">
      <root>
        <mxCell id="0" />
        <mxCell id="1" parent="0" />
        <mxCell id="XO2ayVLeyARKnn1RVpAp-1" value="Pemodelan Bisnis Cuti Karyawan" style="swimlane;html=1;childLayout=stackLayout;resizeParent=1;resizeParentMax=0;horizontal=1;startSize=20;horizontalStack=0;" parent="1" vertex="1">
          <mxGeometry x="80" y="20" width="1180" height="490" as="geometry" />
        </mxCell>
        <mxCell id="XO2ayVLeyARKnn1RVpAp-2" value="Karyawan" style="swimlane;html=1;startSize=20;horizontal=0;" parent="XO2ayVLeyARKnn1RVpAp-1" vertex="1">
          <mxGeometry y="20" width="1180" height="150" as="geometry" />
        </mxCell>
        <mxCell id="XO2ayVLeyARKnn1RVpAp-11" style="edgeStyle=orthogonalEdgeStyle;rounded=0;orthogonalLoop=1;jettySize=auto;html=1;exitX=1;exitY=0.5;exitDx=0;exitDy=0;" parent="XO2ayVLeyARKnn1RVpAp-2" source="t_er1rRjDvhUK6ifVt9Z-1" target="XO2ayVLeyARKnn1RVpAp-10" edge="1">
          <mxGeometry relative="1" as="geometry">
            <mxPoint x="140" y="90" as="sourcePoint" />
          </mxGeometry>
        </mxCell>
        <mxCell id="XO2ayVLeyARKnn1RVpAp-13" style="edgeStyle=orthogonalEdgeStyle;rounded=0;orthogonalLoop=1;jettySize=auto;html=1;exitX=1;exitY=0.5;exitDx=0;exitDy=0;entryX=0;entryY=0.5;entryDx=0;entryDy=0;" parent="XO2ayVLeyARKnn1RVpAp-2" source="XO2ayVLeyARKnn1RVpAp-10" target="XO2ayVLeyARKnn1RVpAp-12" edge="1">
          <mxGeometry relative="1" as="geometry" />
        </mxCell>
        <mxCell id="XO2ayVLeyARKnn1RVpAp-10" value="Mengisi Formulir Pengajuan cuti" style="shape=ext;rounded=1;html=1;whiteSpace=wrap;" parent="XO2ayVLeyARKnn1RVpAp-2" vertex="1">
          <mxGeometry x="150" y="30" width="100" height="60" as="geometry" />
        </mxCell>
        <mxCell id="XO2ayVLeyARKnn1RVpAp-12" value="Memberikan Formulir kepada Manager" style="shape=ext;rounded=1;html=1;whiteSpace=wrap;" parent="XO2ayVLeyARKnn1RVpAp-2" vertex="1">
          <mxGeometry x="320" y="30" width="120" height="60" as="geometry" />
        </mxCell>
        <mxCell id="XO2ayVLeyARKnn1RVpAp-22" value="Tidak" style="text;html=1;align=center;verticalAlign=middle;resizable=0;points=[];autosize=1;" parent="XO2ayVLeyARKnn1RVpAp-2" vertex="1">
          <mxGeometry x="530" y="130" width="40" height="20" as="geometry" />
        </mxCell>
        <mxCell id="XO2ayVLeyARKnn1RVpAp-25" style="edgeStyle=orthogonalEdgeStyle;rounded=0;orthogonalLoop=1;jettySize=auto;html=1;exitX=1;exitY=0.5;exitDx=0;exitDy=0;entryX=0;entryY=0.5;entryDx=0;entryDy=0;" parent="XO2ayVLeyARKnn1RVpAp-2" source="XO2ayVLeyARKnn1RVpAp-23" target="t_er1rRjDvhUK6ifVt9Z-2" edge="1">
          <mxGeometry relative="1" as="geometry">
            <mxPoint x="620" y="60" as="targetPoint" />
          </mxGeometry>
        </mxCell>
        <mxCell id="XO2ayVLeyARKnn1RVpAp-23" value="Menerima surat permohonan yang tidak disetujui" style="shape=parallelogram;perimeter=parallelogramPerimeter;whiteSpace=wrap;html=1;fixedSize=1;" parent="XO2ayVLeyARKnn1RVpAp-2" vertex="1">
          <mxGeometry x="470" y="30" width="120" height="60" as="geometry" />
        </mxCell>
        <mxCell id="XO2ayVLeyARKnn1RVpAp-32" style="edgeStyle=orthogonalEdgeStyle;rounded=0;orthogonalLoop=1;jettySize=auto;html=1;exitX=1;exitY=0.5;exitDx=0;exitDy=0;entryX=0;entryY=0.5;entryDx=0;entryDy=0;" parent="XO2ayVLeyARKnn1RVpAp-2" source="XO2ayVLeyARKnn1RVpAp-27" target="XO2ayVLeyARKnn1RVpAp-31" edge="1">
          <mxGeometry relative="1" as="geometry" />
        </mxCell>
        <mxCell id="XO2ayVLeyARKnn1RVpAp-27" value="Menerima surat permohonan cuti yang telah ditanda tangani" style="shape=ext;rounded=1;html=1;whiteSpace=wrap;" parent="XO2ayVLeyARKnn1RVpAp-2" vertex="1">
          <mxGeometry x="700" y="30" width="100" height="60" as="geometry" />
        </mxCell>
        <mxCell id="XO2ayVLeyARKnn1RVpAp-31" value="Mengantar Dokumen ke bagian Human resource" style="shape=ext;rounded=1;html=1;whiteSpace=wrap;" parent="XO2ayVLeyARKnn1RVpAp-2" vertex="1">
          <mxGeometry x="820" y="30" width="110" height="60" as="geometry" />
        </mxCell>
        <mxCell id="XO2ayVLeyARKnn1RVpAp-43" style="edgeStyle=orthogonalEdgeStyle;rounded=0;orthogonalLoop=1;jettySize=auto;html=1;exitX=1;exitY=0.5;exitDx=0;exitDy=0;entryX=0;entryY=0.5;entryDx=0;entryDy=0;" parent="XO2ayVLeyARKnn1RVpAp-2" source="XO2ayVLeyARKnn1RVpAp-39" target="t_er1rRjDvhUK6ifVt9Z-4" edge="1">
          <mxGeometry relative="1" as="geometry">
            <mxPoint x="1110" y="60" as="targetPoint" />
            <Array as="points">
              <mxPoint x="1100" y="60" />
              <mxPoint x="1100" y="60" />
            </Array>
          </mxGeometry>
        </mxCell>
        <mxCell id="XO2ayVLeyARKnn1RVpAp-39" value="Menerima surat yang telah ditanda tangan dan di beri nomor" style="shape=ext;rounded=1;html=1;whiteSpace=wrap;" parent="XO2ayVLeyARKnn1RVpAp-2" vertex="1">
          <mxGeometry x="950" y="30" width="120" height="60" as="geometry" />
        </mxCell>
        <mxCell id="t_er1rRjDvhUK6ifVt9Z-1" value="START" style="ellipse;whiteSpace=wrap;html=1;" vertex="1" parent="XO2ayVLeyARKnn1RVpAp-2">
          <mxGeometry x="30" y="45" width="70" height="30" as="geometry" />
        </mxCell>
        <mxCell id="t_er1rRjDvhUK6ifVt9Z-2" value="END" style="ellipse;whiteSpace=wrap;html=1;" vertex="1" parent="XO2ayVLeyARKnn1RVpAp-2">
          <mxGeometry x="620" y="45" width="70" height="30" as="geometry" />
        </mxCell>
        <mxCell id="t_er1rRjDvhUK6ifVt9Z-4" value="END" style="ellipse;whiteSpace=wrap;html=1;" vertex="1" parent="XO2ayVLeyARKnn1RVpAp-2">
          <mxGeometry x="1100" y="45" width="70" height="30" as="geometry" />
        </mxCell>
        <mxCell id="XO2ayVLeyARKnn1RVpAp-3" value="Manager" style="swimlane;html=1;startSize=20;horizontal=0;" parent="XO2ayVLeyARKnn1RVpAp-1" vertex="1">
          <mxGeometry y="170" width="1180" height="150" as="geometry" />
        </mxCell>
        <mxCell id="XO2ayVLeyARKnn1RVpAp-17" style="edgeStyle=orthogonalEdgeStyle;rounded=0;orthogonalLoop=1;jettySize=auto;html=1;exitX=1;exitY=0.5;exitDx=0;exitDy=0;entryX=0;entryY=0.5;entryDx=0;entryDy=0;" parent="XO2ayVLeyARKnn1RVpAp-3" source="XO2ayVLeyARKnn1RVpAp-15" target="XO2ayVLeyARKnn1RVpAp-16" edge="1">
          <mxGeometry relative="1" as="geometry" />
        </mxCell>
        <mxCell id="XO2ayVLeyARKnn1RVpAp-15" value="Mengevaluasi Formulir Ajuan Cuti" style="shape=ext;rounded=1;html=1;whiteSpace=wrap;" parent="XO2ayVLeyARKnn1RVpAp-3" vertex="1">
          <mxGeometry x="320" y="20" width="120" height="60" as="geometry" />
        </mxCell>
        <mxCell id="XO2ayVLeyARKnn1RVpAp-16" value="Disetujui?" style="rhombus;whiteSpace=wrap;html=1;" parent="XO2ayVLeyARKnn1RVpAp-3" vertex="1">
          <mxGeometry x="500" y="22.5" width="60" height="55" as="geometry" />
        </mxCell>
        <mxCell id="XO2ayVLeyARKnn1RVpAp-19" style="edgeStyle=orthogonalEdgeStyle;rounded=0;orthogonalLoop=1;jettySize=auto;html=1;exitX=0.5;exitY=1;exitDx=0;exitDy=0;entryX=0.5;entryY=0;entryDx=0;entryDy=0;" parent="XO2ayVLeyARKnn1RVpAp-1" source="XO2ayVLeyARKnn1RVpAp-12" target="XO2ayVLeyARKnn1RVpAp-15" edge="1">
          <mxGeometry relative="1" as="geometry" />
        </mxCell>
        <mxCell id="XO2ayVLeyARKnn1RVpAp-24" style="edgeStyle=orthogonalEdgeStyle;rounded=0;orthogonalLoop=1;jettySize=auto;html=1;exitX=0.5;exitY=0;exitDx=0;exitDy=0;entryX=0.5;entryY=1;entryDx=0;entryDy=0;" parent="XO2ayVLeyARKnn1RVpAp-1" source="XO2ayVLeyARKnn1RVpAp-16" target="XO2ayVLeyARKnn1RVpAp-23" edge="1">
          <mxGeometry relative="1" as="geometry" />
        </mxCell>
        <mxCell id="XO2ayVLeyARKnn1RVpAp-28" style="edgeStyle=orthogonalEdgeStyle;rounded=0;orthogonalLoop=1;jettySize=auto;html=1;exitX=1;exitY=0.5;exitDx=0;exitDy=0;entryX=0.5;entryY=1;entryDx=0;entryDy=0;" parent="XO2ayVLeyARKnn1RVpAp-1" source="XO2ayVLeyARKnn1RVpAp-16" target="XO2ayVLeyARKnn1RVpAp-27" edge="1">
          <mxGeometry relative="1" as="geometry" />
        </mxCell>
        <mxCell id="XO2ayVLeyARKnn1RVpAp-33" style="edgeStyle=orthogonalEdgeStyle;rounded=0;orthogonalLoop=1;jettySize=auto;html=1;exitX=0.5;exitY=1;exitDx=0;exitDy=0;" parent="XO2ayVLeyARKnn1RVpAp-1" source="XO2ayVLeyARKnn1RVpAp-31" target="XO2ayVLeyARKnn1RVpAp-29" edge="1">
          <mxGeometry relative="1" as="geometry">
            <Array as="points">
              <mxPoint x="875" y="300" />
              <mxPoint x="110" y="300" />
            </Array>
          </mxGeometry>
        </mxCell>
        <mxCell id="XO2ayVLeyARKnn1RVpAp-4" value="Human Resource" style="swimlane;html=1;startSize=20;horizontal=0;" parent="XO2ayVLeyARKnn1RVpAp-1" vertex="1">
          <mxGeometry y="320" width="1180" height="170" as="geometry" />
        </mxCell>
        <mxCell id="XO2ayVLeyARKnn1RVpAp-35" style="edgeStyle=orthogonalEdgeStyle;rounded=0;orthogonalLoop=1;jettySize=auto;html=1;exitX=1;exitY=0.5;exitDx=0;exitDy=0;entryX=0;entryY=0.5;entryDx=0;entryDy=0;" parent="XO2ayVLeyARKnn1RVpAp-4" source="XO2ayVLeyARKnn1RVpAp-29" target="XO2ayVLeyARKnn1RVpAp-34" edge="1">
          <mxGeometry relative="1" as="geometry" />
        </mxCell>
        <mxCell id="XO2ayVLeyARKnn1RVpAp-29" value="Cek Kuota dan kelengkapan dokumen" style="shape=ext;rounded=1;html=1;whiteSpace=wrap;" parent="XO2ayVLeyARKnn1RVpAp-4" vertex="1">
          <mxGeometry x="60" y="30" width="100" height="50" as="geometry" />
        </mxCell>
        <mxCell id="XO2ayVLeyARKnn1RVpAp-41" style="edgeStyle=orthogonalEdgeStyle;rounded=0;orthogonalLoop=1;jettySize=auto;html=1;exitX=1;exitY=0.5;exitDx=0;exitDy=0;entryX=0;entryY=0.5;entryDx=0;entryDy=0;" parent="XO2ayVLeyARKnn1RVpAp-4" source="XO2ayVLeyARKnn1RVpAp-34" target="XO2ayVLeyARKnn1RVpAp-38" edge="1">
          <mxGeometry relative="1" as="geometry" />
        </mxCell>
        <mxCell id="XO2ayVLeyARKnn1RVpAp-34" value="Valid?" style="rhombus;whiteSpace=wrap;html=1;" parent="XO2ayVLeyARKnn1RVpAp-4" vertex="1">
          <mxGeometry x="200" y="27.5" width="60" height="55" as="geometry" />
        </mxCell>
        <mxCell id="XO2ayVLeyARKnn1RVpAp-38" value="Membuat surat bahwa cuti disetujui" style="shape=ext;rounded=1;html=1;whiteSpace=wrap;" parent="XO2ayVLeyARKnn1RVpAp-4" vertex="1">
          <mxGeometry x="360" y="25" width="120" height="60" as="geometry" />
        </mxCell>
        <mxCell id="XO2ayVLeyARKnn1RVpAp-45" value="Tidak" style="text;html=1;align=center;verticalAlign=middle;resizable=0;points=[];autosize=1;" parent="XO2ayVLeyARKnn1RVpAp-4" vertex="1">
          <mxGeometry x="190" y="5" width="40" height="20" as="geometry" />
        </mxCell>
        <mxCell id="XO2ayVLeyARKnn1RVpAp-40" style="edgeStyle=orthogonalEdgeStyle;rounded=0;orthogonalLoop=1;jettySize=auto;html=1;exitX=1;exitY=0.5;exitDx=0;exitDy=0;entryX=0.5;entryY=1;entryDx=0;entryDy=0;" parent="XO2ayVLeyARKnn1RVpAp-1" source="XO2ayVLeyARKnn1RVpAp-38" target="XO2ayVLeyARKnn1RVpAp-39" edge="1">
          <mxGeometry relative="1" as="geometry" />
        </mxCell>
        <mxCell id="t_er1rRjDvhUK6ifVt9Z-3" style="edgeStyle=orthogonalEdgeStyle;rounded=0;orthogonalLoop=1;jettySize=auto;html=1;exitX=0.5;exitY=0;exitDx=0;exitDy=0;entryX=0.5;entryY=1;entryDx=0;entryDy=0;" edge="1" parent="XO2ayVLeyARKnn1RVpAp-1" source="XO2ayVLeyARKnn1RVpAp-34" target="t_er1rRjDvhUK6ifVt9Z-2">
          <mxGeometry relative="1" as="geometry">
            <Array as="points">
              <mxPoint x="230" y="270" />
              <mxPoint x="655" y="270" />
            </Array>
          </mxGeometry>
        </mxCell>
        <mxCell id="XO2ayVLeyARKnn1RVpAp-44" value="Ya" style="text;html=1;align=center;verticalAlign=middle;resizable=0;points=[];autosize=1;" parent="1" vertex="1">
          <mxGeometry x="695" y="220" width="30" height="20" as="geometry" />
        </mxCell>
        <mxCell id="XO2ayVLeyARKnn1RVpAp-46" value="Ya" style="text;html=1;align=center;verticalAlign=middle;resizable=0;points=[];autosize=1;" parent="1" vertex="1">
          <mxGeometry x="345" y="370" width="30" height="20" as="geometry" />
        </mxCell>
      </root>
    </mxGraphModel>
  </diagram>
</mxfile>
